<?xml version="1.0" standalone="no"?><!DOCTYPE svg PUBLIC "-//W3C//DTD SVG 1.1//EN" "http://www.w3.org/Graphics/SVG/1.1/DTD/svg11.dtd"><svg t="1568620203851" class="icon" viewBox="0 0 1024 1024" version="1.1" xmlns="http://www.w3.org/2000/svg" p-id="2661" xmlns:xlink="http://www.w3.org/1999/xlink" width="200" height="200"><defs><style type="text/css"></style></defs><path d="M920.325267 491.365031c-2.373047-7.238868-8.725732-12.588713-16.32992-13.674441l-248.359484-35.716456-111.046119-222.497467c-3.420913-6.835685-10.459213-11.17962-18.22099-11.17962s-14.762215 4.343935-18.22099 11.17962l-111.047142 222.497467-248.298086 35.716456c-7.66047 1.086751-14.016225 6.435573-16.409738 13.674441-2.39249 7.237845-0.402159 15.243169 5.148253 20.591991l179.681312 173.147502-42.431392 244.576321c-1.286296 7.52437 1.830695 15.123442 8.084119 19.630083 6.275937 4.503571 14.540158 5.066389 21.376866 1.52575l222.115774-115.472941 222.134193 115.472941c2.935865 1.529843 6.194072 2.293229 9.411347 2.293229 4.222161 0 8.40646-1.326205 11.945053-3.817955 6.233981-4.505617 9.370415-12.106736 8.084119-19.631106l-42.432415-244.576321 179.743734-173.147502C920.726403 506.607176 922.7372 498.602875 920.325267 491.365031L920.325267 491.365031zM698.49295 663.747099c-4.745071 4.584412-6.91755 11.263531-5.791913 17.736966L730.968595 896.380414 535.822057 792.897551c-5.91164-3.134387-12.94994-3.134387-18.904559 0L321.770959 896.380414l39.290865-214.896348c1.125637-6.473435-1.044796-13.152555-5.831822-17.736966L195.340455 511.553838l219.196281-30.30726c6.636141-0.962931 12.347213-5.068436 15.284101-10.979052l96.550986-196.492186 96.550986 196.492186c2.935865 5.910617 8.646937 10.016121 15.285125 10.979052l219.216747 30.30726L698.49295 663.747099 698.49295 663.747099z" p-id="2662" fill="#d81e06"></path><path d="M199.5575 420.552242c11.913331 0 21.605064-9.709129 21.605064-21.623483L221.162564 102.769618l609.439216 0 0 296.15914c0 11.914354 9.637498 21.623483 21.588691 21.623483 11.952216 0 21.586644-9.709129 21.586644-21.623483L873.777115 81.146135c0-11.914354-9.634428-21.586644-21.586644-21.586644L199.5575 59.559491c-11.933797 0-21.606087 9.67229-21.606087 21.586644l0 317.782623C177.951413 410.843112 187.623703 420.552242 199.5575 420.552242L199.5575 420.552242z" p-id="2663" fill="#d81e06"></path></svg>