<?xml version="1.0" standalone="no"?><!DOCTYPE svg PUBLIC "-//W3C//DTD SVG 1.1//EN" "http://www.w3.org/Graphics/SVG/1.1/DTD/svg11.dtd"><svg t="1568620213974" class="icon" viewBox="0 0 1024 1024" version="1.1" xmlns="http://www.w3.org/2000/svg" p-id="2827" xmlns:xlink="http://www.w3.org/1999/xlink" width="200" height="200"><defs><style type="text/css"></style></defs><path d="M917.901055 147.245575 128.015094 147.245575c-32.090882 0-58.18826 26.075889-58.18826 58.125839l0 567.459103c0 32.04688 26.097378 58.125839 58.18826 58.125839l789.885961 0c32.132838 0 58.168818-26.076912 58.168818-58.125839L976.069873 205.371414C976.068849 173.321464 950.033893 147.245575 917.901055 147.245575M932.999938 772.830517c0 8.243755-6.771217 15.056927-15.099906 15.056927L128.015094 787.887444c-8.3072 0-15.120372-6.813173-15.120372-15.056927L112.894721 205.371414c0-8.243755 6.813173-15.057951 15.120372-15.057951l789.885961 0c8.328689 0 15.099906 6.814196 15.099906 15.057951L933.000961 772.830517z" p-id="2828" fill="#f4ea2a"></path><path d="M432.709631 511.054465c31.585369-24.14184 52.405557-61.827137 52.405557-104.474446 0-72.677253-59.092863-131.813095-131.729184-131.813095-72.636321 0-131.729184 59.134819-131.729184 131.813095 0 42.647309 20.797675 80.332606 52.405557 104.474446-70.406536 30.703279-119.846552 100.857059-119.846552 182.535313 0 11.861142 9.610892 21.534456 21.534456 21.534456 11.881608 0 21.534456-9.673313 21.534456-21.534456 0-84.706217 67.818595-153.515373 151.937434-155.701155 1.429559 0 2.734274 0.419556 4.163833 0.419556 1.428535 0 2.734274-0.419556 4.119831-0.419556 84.201727 2.187829 152.000879 70.994937 152.000879 155.701155 0 11.861142 9.631358 21.534456 21.534456 21.534456s21.534456-9.673313 21.534456-21.534456C552.577672 611.911524 503.116167 541.757744 432.709631 511.054465M264.726755 406.581042c0-48.957015 39.745213-88.745207 88.661296-88.745207 48.872081 0 88.660272 39.788192 88.660272 88.745207 0 47.441499-37.600363 85.967954-84.538395 88.23867-1.385557-0.083911-2.691295-0.420579-4.119831-0.420579-1.429559 0-2.735297 0.336668-4.163833 0.420579C302.285163 492.547972 264.726755 454.022541 264.726755 406.581042" p-id="2829" fill="#f4ea2a"></path><path d="M846.863139 314.13556 558.886355 314.13556c-11.945053 0-21.534456 9.673313-21.534456 21.533432 0 11.861142 9.589402 21.534456 21.534456 21.534456l287.976784 0c11.904121 0 21.534456-9.673313 21.534456-21.534456C868.397594 323.808874 858.76726 314.13556 846.863139 314.13556" p-id="2830" fill="#f4ea2a"></path><path d="M846.863139 446.957635 558.886355 446.957635c-11.945053 0-21.534456 9.589402-21.534456 21.533432 0 11.861142 9.589402 21.534456 21.534456 21.534456l287.976784 0c11.904121 0 21.534456-9.673313 21.534456-21.534456C868.397594 456.547037 858.76726 446.957635 846.863139 446.957635" p-id="2831" fill="#f4ea2a"></path><path d="M846.863139 579.778686 601.954243 579.778686c-11.94403 0-21.533432 9.589402-21.533432 21.533432 0 11.861142 9.589402 21.534456 21.533432 21.534456l244.908896 0c11.904121 0 21.534456-9.673313 21.534456-21.534456C868.397594 589.369112 858.76726 579.778686 846.863139 579.778686" p-id="2832" fill="#f4ea2a"></path></svg>