<?xml version="1.0" standalone="no"?><!DOCTYPE svg PUBLIC "-//W3C//DTD SVG 1.1//EN" "http://www.w3.org/Graphics/SVG/1.1/DTD/svg11.dtd"><svg t="1568620179607" class="icon" viewBox="0 0 1024 1024" version="1.1" xmlns="http://www.w3.org/2000/svg" p-id="2183" xmlns:xlink="http://www.w3.org/1999/xlink" width="200" height="200"><defs><style type="text/css"></style></defs><path d="M900.75249 282.353716c-36.104289 0-65.428152 29.606295-65.428152 66.23247 0 11.192923 3.052522 21.620413 7.884574 30.905894-32.695656 23.393803-71.771627 36.760229-112.574938 36.760229-91.393523 0-167.723979-64.032362-189.120288-149.97985 21.396309-10.901281 36.238342-33.082466 36.238342-58.988486 0-36.557614-29.328979-66.231447-65.389266-66.231447-36.193317 0-65.433268 29.674856-65.433268 66.231447 0 25.904996 14.750959 48.087205 36.19434 58.988486-21.352307 85.947488-97.729835 149.97985-189.123358 149.97985-37.611619 0-73.806983-11.818163-105.016799-31.983435 6.512321-10.339486 10.432607-22.562878 10.432607-35.682687 0-36.626175-29.262464-66.23247-65.434292-66.23247-36.105313 0-65.410756 29.606295-65.410756 66.23247 0 34.719756 26.5374 62.934355 60.162218 65.693188l173.152619 429.800883L722.352357 844.080258l175.169555-429.621804c1.063215 0.089028 2.125407 0.361227 3.230578 0.361227 36.153408 0 65.435315-29.674856 65.435315-66.23247C966.188828 311.960011 936.905898 282.353716 900.75249 282.353716M693.20041 798.144042 331.16798 798.144042 188.780039 437.289438c32.540114 16.014742 68.423369 24.89704 105.216343 24.89704 96.887654 0 180.087565-58.539254 218.364333-142.221142C550.549479 403.648246 633.747343 462.186478 730.633974 462.186478c37.702694 0 74.16514-9.151427 107.081831-25.727964L693.20041 798.144042z" p-id="2184" fill="#f4ea2a"></path></svg>