<?xml version="1.0" standalone="no"?><!DOCTYPE svg PUBLIC "-//W3C//DTD SVG 1.1//EN" "http://www.w3.org/Graphics/SVG/1.1/DTD/svg11.dtd"><svg t="1568620196149" class="icon" viewBox="0 0 1024 1024" version="1.1" xmlns="http://www.w3.org/2000/svg" p-id="2497" xmlns:xlink="http://www.w3.org/1999/xlink" width="200" height="200"><defs><style type="text/css"></style></defs><path d="M226.754932 180.217525l588.594469 0 0 41.488927-588.594469 0 0-41.488927Z" p-id="2498" fill="#1296db"></path><path d="M974.794833 366.252545c0-47.089481-25.272593-75.04109-65.482387-97.662297L909.312446 88.080058c0-19.429515-15.83157-35.217083-35.217083-35.217083L167.939385 52.862975c-19.385513 0-35.173081 15.787568-35.173081 35.217083l0 182.01445c-30.762631 24.378224-49.472761 56.399521-49.472761 96.158037 0 40.930201 19.564591 77.088726 49.472761 100.656491l0 430.731068c0 19.383466 15.787568 35.174104 35.173081 35.174104l706.154955 0c19.385513 0 35.217083-15.788591 35.217083-35.174104L909.311423 477.701846C948.170452 455.529871 974.794833 414.106436 974.794833 366.252545M866.68151 891.324258l-691.284269 0L175.397241 490.070548c10.611685 2.877537 25.056676 4.901637 36.570917 4.901637 43.805692 0 82.439594-22.081924 105.692181-55.588039 23.252587 33.506115 61.931514 55.588039 105.690134 55.588039 43.807738 0 82.440617-22.081924 105.737206-55.588039 23.209608 33.506115 61.888536 55.588039 105.693204 55.588039 43.715641 0 82.395592-22.081924 105.60213-55.588039 23.295566 33.506115 61.885466 55.588039 105.692181 55.588039 5.846148 0 14.939247-0.98749 20.605294-1.7519L866.680487 891.324258zM846.078263 453.485305c-45.515636 0-84.859713-41.71917-84.859713-87.23276 0-12.727882-8.061606-23.026436-20.745487-23.026436-12.769838 0-20.74344 10.299577-20.74344 23.026436 0 45.514613-39.434128 87.23276-84.947717 87.23276-45.603641 0-84.948741-41.71917-84.948741-87.23276 0-12.727882-8.06263-23.026436-20.74344-23.026436-12.771885 0-20.74344 10.299577-20.74344 23.026436 0 45.514613-39.389102 87.23276-84.99479 87.23276-45.559639 0-84.947717-41.71917-84.947717-87.23276 0-12.727882-7.970532-23.026436-20.74344-23.026436-12.727882 0-20.74344 10.299577-20.74344 23.026436 0 45.514613-39.3451 87.23276-84.948741 87.23276-45.559639 0-87.184665-41.71917-87.184665-87.23276 0-28.469402 9.824763-54.643528 33.885761-69.938885 6.882757-4.361331 15.585977-11.82635 15.585977-19.428491l0 0L174.255231 89.784886l693.567265 0 0 177.883363c-0.357134 9.312086 4.949732 18.304901 14.123672 22.038946 31.211862 12.681834 51.359738 42.814108 51.359738 76.546374C933.30693 411.767158 891.682927 453.485305 846.078263 453.485305" p-id="2499" fill="#1296db"></path></svg>