<?xml version="1.0" standalone="no"?><!DOCTYPE svg PUBLIC "-//W3C//DTD SVG 1.1//EN" "http://www.w3.org/Graphics/SVG/1.1/DTD/svg11.dtd"><svg t="1568620266051" class="icon" viewBox="0 0 1024 1024" version="1.1" xmlns="http://www.w3.org/2000/svg" p-id="3903" xmlns:xlink="http://www.w3.org/1999/xlink" width="200" height="200"><defs><style type="text/css"></style></defs><path d="M991.119 1l-127.524 0c-17.605 0-31.881 14.289-31.881 31.894l0 95.643-159.405 0c-17.605 0-31.881 14.289-31.881 31.862l0 95.637-255.048 0 0-95.637c0-17.573-14.27-31.862-31.881-31.862l-159.405 0 0-95.643c0-17.605-14.27-31.894-31.881-31.894l-127.524 0c-17.605 0-31.881 14.289-31.881 31.894l0 318.817c0 17.598 14.276 31.862 31.881 31.862 17.604 0 31.875-14.264 31.875-31.862l0-31.919 127.531 0 0 95.669c0 17.63 14.276 31.894 31.881 31.894l95.643 0 0 127.499-95.643 0c-17.605 0-31.881 14.289-31.881 31.894l0 95.643-127.531 0 0-31.894c0-17.598-14.27-31.862-31.875-31.862-17.605 0-31.881 14.263-31.881 31.862l0 318.849c0 17.573 14.276 31.83 31.881 31.83l127.524 0c17.611 0 31.881-14.257 31.881-31.83l0-95.643 159.405 0c17.611 0 31.881-14.289 31.881-31.919l0-95.611 255.048 0 0 95.611c0 17.63 14.276 31.919 31.881 31.919l159.405 0 0 95.643c0 17.573 14.276 31.83 31.881 31.83l127.524 0c17.611 0 31.881-14.257 31.881-31.83l0-318.849c0-17.598-14.27-31.862-31.881-31.862-17.604 0-31.881 14.263-31.881 31.862l0 31.894-127.524 0 0-95.643c0-17.605-14.276-31.894-31.881-31.894l-95.643 0 0-127.499 95.643 0c17.604 0 31.881-14.263 31.881-31.894l0-95.669 127.524 0 0 31.919c0 17.598 14.276 31.862 31.881 31.862 17.611 0 31.881-14.264 31.881-31.862l0-318.817C1023 15.289 1008.731 1 991.119 1zM959.238 957.425l-63.769 0 0-95.643c0-17.573-14.27-31.862-31.875-31.862l-159.405 0 0-95.643c0-17.598-14.27-31.887-31.881-31.887l-318.81 0c-17.605 0-31.881 14.289-31.881 31.887l0 95.643-159.405 0c-17.604 0-31.881 14.289-31.881 31.862l0 95.643-63.769 0 0-191.254 159.412 0c17.605 0 31.881-14.289 31.881-31.894l0-95.643 510.097 0 0 95.643c0 17.605 14.27 31.894 31.881 31.894l159.405 0L959.238 957.425zM640.428 574.853l-255.048 0 0-127.499 255.048 0L640.428 574.853zM799.833 256.036c-17.611 0-31.881 14.321-31.881 31.919l0 95.618-510.097 0 0-95.618c0-17.598-14.276-31.919-31.881-31.919l-159.412 0 0-191.254 63.769 0 0 95.618c0 17.63 14.276 31.919 31.881 31.919l159.405 0 0 95.637c0 17.573 14.276 31.836 31.881 31.836l318.81 0c17.611 0 31.881-14.264 31.881-31.836l0-95.637 159.405 0c17.604 0 31.875-14.289 31.875-31.919l0-95.618 63.769 0 0 191.254L799.833 256.036z" p-id="3904" fill="#1296db"></path></svg>